<svg xmlns="http://www.w3.org/2000/svg" version="1.1" width="407.5" height="366.25" preserveAspectRatio="xMidYMid meet" viewBox="69.25 69.75 407.5 366.25"><defs><clipPath id="clippath0" transform=""><path d="M 36 36 L 576 36 L 576 756 L 36 756 Z" fill="none" clip-rule="nonzero"/></clipPath><clipPath id="clippath1" transform=""><path d="M 68 354.4 L 477.6 354.4 L 477.6 724 L 68 724 Z" fill="none" clip-rule="nonzero"/></clipPath></defs><g transform="matrix(1 0 0 -1 0 792)"><g transform=""><path d="M 36 36 L 576 36 L 576 756 L 36 756 Z" fill="none"/></g><g clip-path="url(#clippath0)"><g transform=""><path d="M 36 317.6 L 576 317.6 L 576 756 L 36 756 Z" fill="#ffffff" fill-opacity="1"/></g></g><g transform=""><path d="M 68 354.4 L 477.6 354.4 L 477.6 724 L 68 724 Z" fill="none"/></g><g clip-path="url(#clippath1)"><g transform=""><path d="M 164.8845 718.1969 C 164.628 718.1542 164.3073 717.919 164.2004 717.7052 C 164.0508 717.4487 164.008 687.8831 164.0294 630.1201 L 164.0935 542.9411 L 164.5425 542.877 C 164.799 542.8342 165.3121 543.0694 165.6969 543.4114 C 166.4023 544.01 167.4926 544.7582 179.229 552.7536 C 182.6709 555.1051 186.4762 557.7346 187.7161 558.6325 C 188.956 559.509 191.2648 561.1123 192.8468 562.1812 C 194.4287 563.2715 196.6093 564.7466 197.6568 565.4734 C 200.2007 567.2478 206.892 571.7798 214.6522 577.0388 C 218.1154 579.369 221.087 581.5068 221.2152 581.7847 C 221.429 582.1695 221.4931 590.8917 221.4931 622.0393 C 221.4931 646.7307 221.5786 661.9303 221.7069 662.1228 C 221.8779 662.4006 228.6974 662.4434 280.9663 662.4434 L 340.0334 662.4434 L 343.1332 661.8662 C 347.3019 661.0966 349.2045 660.605 352.005 659.6643 C 362.074 656.2438 369.7914 649.467 374.6655 639.7829 C 380.01 629.1581 380.0955 614.2791 374.9007 603.4191 C 372.4422 598.2884 370.3472 595.2528 366.7558 591.6613 C 361.3258 586.2099 355.7248 582.9391 345.6986 579.3904 C 343.6462 578.6635 341.4871 577.8939 340.8886 577.6802 C 340.3113 577.445 337.9384 576.6113 335.651 575.7989 C 333.3635 574.9866 330.8623 574.0673 330.0927 573.768 C 327.1426 572.635 316.8598 568.787 314.4869 567.9532 C 313.7173 567.6754 312.627 567.2691 312.0284 567.034 C 311.4512 566.7988 308.4583 565.6872 305.4013 564.5542 C 302.3442 563.4211 299.6078 562.395 299.3086 562.2667 C 299.0093 562.1385 297.7266 561.6468 296.4653 561.1978 C 295.204 560.7489 292.5531 559.7227 290.5864 558.9531 C 286.6315 557.3712 284.2799 556.4734 280.9236 555.2334 C 279.6837 554.7845 277.8238 554.0576 276.7549 553.6087 C 274.895 552.8605 273.4841 552.2833 270.0209 550.9578 C 269.1444 550.6158 267.6479 550.0386 266.7073 549.6751 C 265.7667 549.3118 264.6122 548.8842 264.142 548.7131 C 263.6717 548.5635 262.7738 548.2214 262.1752 547.9863 C 261.5553 547.7298 260.5932 547.3663 260.0374 547.1312 C 259.4602 546.9174 257.7072 546.2119 256.1253 545.5706 C 254.5433 544.9293 252.2773 544.0314 251.1014 543.5825 C 249.9257 543.1335 247.8093 542.2998 246.3983 541.7226 C 244.9874 541.1454 242.0158 539.9482 239.7712 539.0718 C 237.5479 538.1953 235.5384 537.3829 235.3246 537.2546 C 235.1108 537.1478 233.9137 536.656 232.6524 536.1858 C 231.391 535.7154 229.5098 535.0099 228.441 534.6038 C 226.0894 533.7273 218.3934 530.6274 215.1866 529.2593 C 213.904 528.7034 212.5999 528.1904 212.3006 528.0835 C 211.6166 527.8698 210.227 527.2926 209.4146 526.8863 C 208.6022 526.5015 199.5166 522.8246 198.0843 522.3115 C 196.8658 521.8626 184.659 516.9456 178.7374 514.5086 C 176.5568 513.6107 174.5473 512.7983 174.248 512.7128 C 173.9487 512.6059 173.0509 512.2425 172.2385 511.8577 C 171.4262 511.4943 170.6779 511.195 170.5497 511.195 C 170.4427 511.195 169.8014 510.9598 169.1387 510.6819 C 168.476 510.404 167.1292 509.8268 166.1244 509.4206 C 165.1197 508.993 163.4094 508.2662 162.2978 507.7959 C 161.2075 507.3042 160.2027 506.9194 160.0745 506.9194 C 159.9676 506.9194 159.3262 506.6842 158.6635 506.4063 C 158.0008 506.1284 156.5471 505.5085 155.3927 505.0168 C 154.2597 504.5465 153.2122 504.1403 153.0839 504.1403 C 152.9343 504.1403 152.5709 503.9906 152.2716 503.8196 C 151.7158 503.5203 148.7229 502.2804 147.0982 501.6818 C 146.6919 501.5108 145.6872 501.1046 144.8962 500.7412 C 144.0838 500.3778 143.3356 500.0785 143.2287 500.0785 C 143.0363 500.0785 139.231 498.5179 137.7987 497.8338 C 136.5161 497.2353 132.6253 495.6106 130.3165 494.734 C 129.0338 494.2423 127.5802 493.6438 127.0884 493.43 C 126.5967 493.1948 126.105 493.0238 125.9768 493.0238 C 125.8485 493.0238 125.4851 492.8742 125.143 492.7031 C 124.63 492.4252 123.3046 491.8694 118.7725 489.9882 C 118.1953 489.753 117.3187 489.3682 116.827 489.1544 C 116.3354 488.9193 115.8651 488.7482 115.7795 488.7482 C 115.694 488.7482 115.3306 488.62 114.9672 488.449 C 114.3258 488.1497 113.1287 487.6794 109.9006 486.4608 C 109.131 486.1829 108.3187 485.8622 108.0835 485.7554 C 107.8484 485.6484 106.9291 485.2636 106.0526 484.9002 C 105.1761 484.5368 104.2569 484.152 104.0217 484.0451 C 103.7866 483.9382 102.9956 483.6175 102.2687 483.3182 C 99.85302 482.3135 98.27106 481.6508 97.39458 481.266 C 95.64158 480.4964 95.00025 480.2398 93.54655 479.684 C 92.7342 479.3634 91.2805 478.7862 90.33987 478.38 C 89.39925 477.9738 87.32559 477.1186 85.74363 476.4346 C 84.16167 475.7718 81.89562 474.8312 80.71983 474.3182 C 79.54405 473.8265 78.00484 473.2065 77.29938 472.95 C 74.96918 472.0735 73.25896 471.2825 73.17345 471.026 C 73.06655 470.6839 75.0547 470.7267 76.16634 471.0901 C 76.67942 471.2611 77.76969 471.5604 78.58205 471.7528 C 82.96451 472.7576 83.88376 472.9714 85.74363 473.3562 C 87.6035 473.7623 88.58689 473.9761 92.79833 474.9382 C 93.56794 475.1306 95.3423 475.5581 96.75324 475.9429 C 98.16418 476.3063 99.89578 476.7338 100.6013 476.8835 C 105.8175 478.0166 106.2236 478.1234 111.7177 479.3847 C 112.7866 479.6198 114.4114 480.0046 115.352 480.197 C 117.0836 480.6033 122.2998 481.8859 124.4376 482.4418 C 125.0789 482.6128 126.5754 482.9334 127.7511 483.19 C 128.927 483.4465 130.4234 483.7672 131.0647 483.9382 C 131.7061 484.1092 133.3522 484.494 134.699 484.7934 C 136.0458 485.114 138.1622 485.5843 139.4021 485.8836 C 140.642 486.1829 142.224 486.5463 142.9294 486.7174 C 143.6349 486.8883 144.8962 487.1662 145.7086 487.3801 C 146.5423 487.5725 147.7822 487.8503 148.4877 488.0214 C 151.2668 488.6414 152.5922 488.9406 153.7253 489.2399 C 154.3666 489.4323 155.6706 489.753 156.6113 489.9882 C 157.5519 490.2233 159.0056 490.5654 159.8179 490.7791 C 160.6517 490.9715 161.742 491.2281 162.2764 491.335 C 162.8109 491.4418 163.7301 491.6556 164.3073 491.8266 C 166.0603 492.3397 168.7326 492.981 169.6518 493.1307 C 170.1221 493.1948 170.9986 493.3872 171.5758 493.5582 C 172.1744 493.7079 173.6067 494.0499 174.7825 494.3278 C 175.9582 494.5844 178.2243 495.1402 179.8062 495.5464 C 181.3882 495.9312 183.3122 496.4015 184.0818 496.5726 C 184.8301 496.7435 185.7493 496.9574 186.1127 497.0642 C 186.4548 497.1711 187.9085 497.5131 189.3194 497.8338 C 190.7303 498.1331 192.4192 498.5179 193.0606 498.689 C 193.7019 498.86 195.1556 499.202 196.2672 499.4372 C 197.3789 499.6937 198.8754 500.0571 199.5808 500.2282 C 200.2862 500.4206 201.4406 500.677 202.1462 500.8481 C 202.8516 500.9978 204.2412 501.3184 205.2459 501.5536 C 206.2507 501.7887 207.8754 502.1735 208.8802 502.4087 C 212.1296 503.1355 213.6688 503.499 214.866 503.7982 C 215.5073 503.9693 217.1106 504.3754 218.3934 504.6747 C 220.809 505.2306 223.353 505.8719 225.2342 506.385 C 225.8328 506.556 226.7948 506.7484 227.372 506.8339 C 227.9706 506.9194 228.6761 507.069 228.9754 507.1974 C 229.2746 507.3042 230.1298 507.518 230.8994 507.6677 C 232.1821 507.9242 233.2296 508.1594 236.2438 508.9503 C 237.7403 509.3351 240.0491 509.8696 241.6952 510.233 C 242.4006 510.3826 243.8544 510.7033 244.9019 510.9385 C 245.9708 511.1736 247.7879 511.6226 248.9637 511.9218 C 251.5718 512.6273 254.415 513.2686 256.4887 513.6534 C 257.3438 513.8245 258.2203 514.0596 258.4554 514.1665 C 258.6906 514.2948 259.0968 514.4017 259.3747 514.4017 C 259.6526 514.4017 260.4008 514.5513 261.0422 514.7223 C 261.6835 514.8934 262.7524 515.1499 263.3938 515.2782 C 264.035 515.385 265.0612 515.6202 265.6384 515.7912 C 266.237 515.9622 267.3914 516.2402 268.2038 516.4326 C 274.1682 517.8435 274.9806 518.0359 276.2205 518.3779 C 276.8618 518.5276 278.5079 518.9124 279.8547 519.2117 C 284.002 520.131 286.1184 520.6226 287.2301 520.9219 C 287.8286 521.0716 288.7265 521.264 289.261 521.3495 C 289.7954 521.435 290.7146 521.6274 291.2918 521.777 C 291.8905 521.9481 293.28 522.2687 294.3917 522.5253 C 295.5033 522.7818 297.1494 523.1666 298.0259 523.3804 C 298.9024 523.5942 300.014 523.8293 300.4843 523.8934 C 300.9546 523.979 301.767 524.1714 302.3014 524.321 C 302.8359 524.492 304.4178 524.8768 305.8288 525.1761 C 307.2398 525.4968 308.8217 525.8388 309.3562 525.9671 C 311.8146 526.5657 314.0806 527.0787 315.342 527.3353 C 318.0783 527.8911 325.753 529.6227 329.0238 530.435 C 331.2898 531.0122 333.9194 531.6322 336.2922 532.1453 C 337.4039 532.3805 338.8149 532.7225 339.3921 532.8935 C 339.9906 533.0646 341.8506 533.4921 343.5607 533.8342 C 347.3019 534.5824 349.2045 535.0313 351.043 535.5658 C 351.8126 535.7795 353.245 536.1643 354.2497 536.4422 C 355.2545 536.6988 357.2212 537.2546 358.6322 537.6608 C 360.0431 538.067 361.6892 538.5159 362.2664 538.6655 C 362.865 538.8366 364.3401 539.3069 365.58 539.713 C 366.8198 540.1406 368.3163 540.6323 368.8935 540.8247 C 369.4921 540.9958 370.3045 541.295 370.7106 541.4446 C 371.1168 541.6157 372.6133 542.1715 374.0242 542.7274 C 377.9578 544.2238 378.4494 544.4376 382.105 546.1478 C 383.2594 546.6822 384.2642 547.1098 384.3283 547.1098 C 384.3925 547.1098 386.3378 548.0505 388.6467 549.2049 C 396.3854 553.0956 400.8748 555.8534 407.9082 561.091 C 414.7705 566.1789 421.7824 573.7894 426.2504 580.9938 C 432.0651 590.3145 435.0794 599.0366 436.7682 611.3503 C 437.1317 614.0653 437.1958 615.69 437.1958 621.8469 C 437.1958 626.892 437.1103 629.8635 436.8966 631.5524 C 436.7255 632.8992 436.5118 634.7377 436.4476 635.6142 C 436.3621 636.4907 436.2125 637.6023 436.0842 638.0726 C 435.9559 638.543 435.7422 639.7402 435.5711 640.7449 C 434.6518 646.41 432.172 654.7046 429.9274 659.6643 C 429.7136 660.1346 429.3715 660.947 429.1578 661.4601 C 428.4737 663.042 425.2029 669.6478 424.7966 670.225 C 424.6042 670.5242 423.6209 672.0421 422.6375 673.5599 C 418.5971 679.845 414.749 684.5909 409.9177 689.2726 C 405.5779 693.4841 399.2287 698.5293 395.6586 700.6243 C 395.0386 700.9878 393.8842 701.6932 393.0506 702.2062 C 385.6966 706.7811 375.5421 711.3346 368.3591 713.3014 C 367.2474 713.6221 365.8578 714.0069 365.2593 714.1778 C 358.9101 716.0378 349.29 717.5983 341.1023 718.1328 C 337.7887 718.3466 165.9962 718.4107 164.8845 718.1969 Z" fill="#111111" fill-opacity="1"/><path d="M 417.6565 553.908 C 417.4426 553.7797 416.331 552.9887 415.198 552.155 C 413.0388 550.5517 412.7395 550.3593 409.1908 548.0718 C 399.9983 542.1502 389.0956 536.5706 378.6632 532.4874 C 372.3782 530.0289 370.9886 529.5158 369.8555 529.131 C 369.2142 528.9386 367.8674 528.4683 366.8626 528.1262 C 365.8578 527.7842 363.7414 527.1002 362.1595 526.6084 C 360.5775 526.1167 358.6963 525.5182 357.9908 525.3044 C 357.2854 525.0906 356.3661 524.8554 355.9599 524.7699 C 354.6773 524.5134 351.5988 523.5942 351.4064 523.4018 C 351.2995 523.2949 351.3423 523.1452 351.4706 523.0597 C 351.6202 522.9742 354.8269 522.8673 358.6108 522.8459 C 365.7082 522.8032 368.4446 522.5894 373.7035 521.6488 C 377.9791 520.9006 383.3236 519.2117 387.3426 517.3732 C 387.8343 517.1594 388.6894 516.7532 389.2666 516.4967 C 394.2905 514.1879 402.4782 507.7746 406.0055 503.3707 C 409.8749 498.5179 412.8892 493.4514 414.6208 488.8551 C 414.9414 488.0427 415.2835 487.1449 415.3904 486.8883 C 417.7634 481.1805 418.9819 472.4155 418.5543 464.185 C 418.255 458.1138 417.293 454.1161 414.1933 446.2062 C 413.1243 443.4485 412.3762 442.0162 410.6659 439.3226 C 407.4378 434.1919 404.0174 430.1729 400.1907 426.9234 C 391.7038 419.7191 383.6015 415.9994 371.7368 413.8188 C 367.2688 413.0064 367.333 413.0064 293.7076 412.9209 C 221.7924 412.8568 221.7069 412.8568 221.2794 413.2843 C 220.8518 413.7119 220.8518 413.9257 220.8518 445.3511 C 220.8518 473.6127 220.809 477.0118 220.5311 477.1401 C 220.3387 477.2042 219.7402 477.1401 219.1843 476.9904 C 215.4646 476.0498 214.6308 475.836 213.6261 475.4726 C 212.9847 475.2374 212.2151 475.0664 211.9158 475.0664 C 211.5951 475.045 210.9538 474.9167 210.4835 474.7458 C 210.0132 474.5534 209.0084 474.2754 208.2388 474.1044 C 206.5927 473.7196 204.1343 473.121 201.6117 472.501 C 200.607 472.2445 199.2602 471.9025 198.6188 471.7528 C 197.101 471.3894 191.7993 469.9998 187.5664 468.8454 C 186.6472 468.6102 185.279 468.2682 184.5094 468.1186 C 183.7398 467.969 182.6922 467.7124 182.1578 467.5842 C 181.6234 467.4558 180.469 467.1566 179.5925 466.9428 C 178.716 466.7504 177.3264 466.4083 176.4927 466.1946 C 175.6803 466.0022 174.5687 465.7456 174.0342 465.6387 C 173.4998 465.5532 172.5378 465.3181 171.8965 465.147 C 171.2551 464.976 169.9083 464.634 168.9035 464.3774 C 165.7396 463.5865 164.7562 463.2658 164.3714 462.9238 C 164.008 462.6245 163.9866 459.8881 163.9866 411.4672 C 163.9866 368.4977 164.0294 360.2886 164.2859 360.0748 C 164.4997 359.9038 190.9655 359.861 267.2631 359.9038 C 363.036 359.9466 370.1976 359.9893 373.4898 360.3314 C 375.4352 360.5238 377.7012 360.8017 378.5136 360.9299 C 379.3473 361.0368 380.9293 361.272 382.041 361.443 C 386.4234 362.063 391.1051 363.0463 395.2952 364.2649 C 398.7584 365.2697 405.1931 367.3646 406.3048 367.8564 C 407.053 368.1984 407.9937 368.6046 410.4735 369.6094 C 414.236 371.1486 420.6494 374.5904 425.8655 377.8826 C 427.3193 378.8018 433.3264 383.2057 435.165 384.7235 C 441.4928 389.897 447.2434 395.9897 452.6093 403.2367 C 454.7257 406.1227 454.9181 406.4006 457.5262 410.6121 C 460.2412 415.0159 461.5025 417.5172 464.3458 424.0802 C 464.4526 424.3154 464.7946 425.1277 465.0939 425.8973 C 465.4146 426.6669 465.8422 427.693 466.0774 428.2061 C 466.2911 428.6978 466.4835 429.2109 466.4835 429.3391 C 466.4835 429.4674 466.6331 429.8736 466.7828 430.237 C 467.2318 431.2204 467.98 433.3582 468.1938 434.3415 C 468.3006 434.8118 468.5358 435.5814 468.7068 436.0518 C 468.8778 436.5221 469.0274 437.0993 469.0489 437.3345 C 469.0489 437.5696 469.2413 438.4461 469.455 439.2585 C 470.7163 443.7906 472.0631 451.9783 472.4907 457.8358 C 472.8969 463.5437 472.6403 475.387 472.0418 478.38 C 471.9349 478.9786 471.7425 480.304 471.6142 481.3515 C 471.5073 482.399 471.2722 483.8954 471.1011 484.665 C 470.9301 485.4346 470.695 486.6532 470.5453 487.3586 C 469.9254 490.5226 469.7116 491.506 469.3695 492.5962 C 469.1771 493.2376 468.8137 494.4561 468.5786 495.2685 C 468.1938 496.5511 466.7186 500.955 465.7139 503.8196 C 465.3718 504.7602 465.3291 504.8671 464.2816 507.1332 C 463.8754 508.0097 463.2768 509.3138 462.9562 510.0192 C 460.1129 516.3257 456.1366 522.6108 450.899 529.1524 C 445.4263 535.9934 436.0842 544.2666 429.0722 548.478 C 424.1981 551.4068 418.9605 554.1645 418.3192 554.1645 C 418.1695 554.1645 417.8916 554.0362 417.6565 553.908 Z" fill="#111111" fill-opacity="1"/></g></g></g></svg>